<svg width="12" height="12" viewBox="0 0 12 12" fill="none" xmlns="http://www.w3.org/2000/svg">
  <path
    d="M10.554 0.470633C10.8071 0.217505 11.2175 0.217505 11.4706 0.470633C11.7238 0.72376 11.7238 1.13416 11.4706 1.38729L1.38743 11.4705C1.1343 11.7236 0.723901 11.7236 0.470773 11.4705C0.217646 11.2174 0.217646 10.807 0.470773 10.5538L10.554 0.470633Z"
    fill="white" />
  <path
    d="M0.470774 1.38729C0.217647 1.13416 0.217646 0.72376 0.470773 0.470633C0.723901 0.217505 1.1343 0.217505 1.38743 0.470632L11.4706 10.5538C11.7238 10.807 11.7238 11.2174 11.4706 11.4705C11.2175 11.7236 10.8071 11.7236 10.554 11.4705L0.470774 1.38729Z"
    fill="white" />
</svg>